<?xml version="1.0" encoding="UTF-8"?>
<svg viewBox="0 0 640 96" version="1.1" xmlns="http://www.w3.org/2000/svg" xmlns:xlink="http://www.w3.org/1999/xlink">
  <path
    d="M28,67.592 C28.2346667,67.592 28.352,67.416 28.352,67.064 C28.352,66.712 28.2346667,66.536 28,66.536 C25.712,66.536 24.0106667,66.3893333 22.896,66.096 C21.7813333,65.8026667 21.048,65.216 20.696,64.336 C20.344,63.456 20.168,62.1653333 20.168,60.464 L20.168,60.464 L20.167,36.801 L20.6293125,36.8243125 C21.1747292,36.8563958 21.7118958,36.8948958 22.2408125,36.9398125 L23.028,37.012 C25.1106667,37.2173333 27.296,37.584 29.584,38.112 C29.76,38.1706667 29.9506667,37.9213333 30.156,37.364 C30.3613333,36.8066667 30.464,36.2346667 30.464,35.648 C30.464,35.12 30.4053333,34.636 30.288,34.196 C30.1706667,33.756 30.024,33.536 29.848,33.536 C27.4426667,33.7706667 25.1546667,33.976 22.984,34.152 C22.2604444,34.2106667 21.5336296,34.2595556 20.8035556,34.2986667 L20.167,34.329 L20.168,28.96 C20.168,20.8376 20.94878,14.973885 22.51034,11.368855 L22.632,11.096 C24.2746667,7.51733333 26.3573333,5.728 28.88,5.728 C30.3466667,5.728 31.3586667,6.10933333 31.916,6.872 C32.4733333,7.63466667 32.9573333,8.48533333 33.368,9.424 C33.7786667,10.3626667 34.292,11.228 34.908,12.02 C35.524,12.812 36.624,13.208 38.208,13.208 C39.3226667,13.208 40.3493333,12.8413333 41.288,12.108 C42.2266667,11.3746667 42.696,10.304 42.696,8.896 C42.696,7.19466667 41.7866667,5.904 39.968,5.024 C38.1493333,4.144 35.5973333,3.704 32.312,3.704 C25.6826667,3.704 20.6666667,5.78666667 17.264,9.952 C13.8613333,14.1173333 12.0133333,21.0693333 11.72,30.808 C11.6613333,32.2746667 11.2506667,33.2866667 10.488,33.844 C9.72533333,34.4013333 8.31733333,34.68 6.264,34.68 C6.088,34.68 6,34.944 6,35.472 C6,36 6.088,36.264 6.264,36.264 C7.672,36.264 8.78666667,36.3666667 9.608,36.572 C10.4293333,36.7773333 11.016,37.188 11.368,37.804 C11.72,38.42 11.896,39.3733333 11.896,40.664 L11.896,40.664 L11.896,60.464 C11.896,62.9866667 11.5733333,64.6293333 10.928,65.392 C10.2826667,66.1546667 8.84533333,66.536 6.616,66.536 C6.38133333,66.536 6.264,66.712 6.264,67.064 C6.264,67.416 6.38133333,67.592 6.616,67.592 C7.90666667,67.592 9.35866667,67.5626667 10.972,67.504 C12.5853333,67.4453333 14.2426667,67.416 15.944,67.416 C17.9973333,67.416 20.0066667,67.4453333 21.972,67.504 C23.9373333,67.5626667 25.9466667,67.592 28,67.592 Z M55.28,67.592 C55.5146667,67.592 55.632,67.416 55.632,67.064 C55.632,66.712 55.5146667,66.536 55.28,66.536 C53.2853333,66.536 51.716,66.36 50.572,66.008 C49.428,65.656 48.6213333,65.0253333 48.152,64.116 C47.6826667,63.2066667 47.448,61.9893333 47.448,60.464 L47.448,60.464 L47.447,41.525 L47.4945422,41.4786844 C47.9842133,41.0030933 48.4199111,40.5955556 48.8016356,40.2560711 L48.988,40.092 C49.8973333,39.3 50.6013333,38.772 51.1,38.508 C51.5986667,38.244 52.0533333,38.112 52.464,38.112 C53.4026667,38.112 54.1213333,38.42 54.62,39.036 C55.1186667,39.652 55.676,40.2826667 56.292,40.928 C56.908,41.5733333 57.832,41.896 59.064,41.896 C60.3546667,41.896 61.3666667,41.5 62.1,40.708 C62.8333333,39.916 63.2,38.904 63.2,37.672 C63.2,36.2053333 62.54,35.0173333 61.22,34.108 C59.9,33.1986667 58.624,32.744 57.392,32.744 C56.512,32.744 55.5146667,33.0226667 54.4,33.58 C53.2853333,34.1373333 51.936,35.12 50.352,36.528 C49.56,37.232 48.68,38.09 47.712,39.102 L47.408,39.423 L47.3944083,39.166782 C47.2872249,37.5078754 47.0192664,36.1559031 46.5905329,35.1108651 L46.48,34.856 C45.8346667,33.448 45.1893333,32.744 44.544,32.744 C44.4853333,32.744 44.28,32.8026667 43.928,32.92 L43.928,32.92 L31.696,38.904 C31.5786667,38.9626667 31.5786667,39.168 31.696,39.52 C31.8133333,39.872 31.9893333,39.9893333 32.224,39.872 C33.104,39.4613333 33.896,39.1533333 34.6,38.948 C35.304,38.7426667 35.92,38.64 36.448,38.64 C37.4453333,38.64 38.1493333,39.0653333 38.56,39.916 C38.9706667,40.7666667 39.176,42.1013333 39.176,43.92 L39.176,43.92 L39.176,60.464 C39.176,62.8106667 38.8533333,64.4093333 38.208,65.26 C37.5626667,66.1106667 36.3306667,66.536 34.512,66.536 C34.336,66.536 34.248,66.712 34.248,67.064 C34.248,67.416 34.336,67.592 34.512,67.592 C35.6853333,67.592 37.0346667,67.5626667 38.56,67.504 C40.0853333,67.4453333 41.6693333,67.416 43.312,67.416 C45.6586667,67.416 47.844,67.4453333 49.868,67.504 C51.892,67.5626667 53.696,67.592 55.28,67.592 Z M90.568,68.296 C90.92,68.296 91.2133333,68.2373333 91.448,68.12 L91.448,68.12 L100.512,63.808 C100.805333,63.6906667 100.878667,63.4706667 100.732,63.148 C100.585333,62.8253333 100.394667,62.7226667 100.16,62.84 C99.28,63.2506667 98.4293333,63.456 97.608,63.456 C96.4933333,63.456 95.628,62.9866667 95.012,62.048 C94.396,61.1093333 94.088,59.7893333 94.088,58.088 L94.088,58.088 L94.088,42.512 C94.088,39.0506667 93.2373333,36.5573333 91.536,35.032 C89.8346667,33.5066667 87.7813333,32.744 85.376,32.744 C83.792,32.744 81.9586667,33.0226667 79.876,33.58 C77.7933333,34.1373333 75.784,34.9 73.848,35.868 C71.912,36.836 70.3133333,37.9506667 69.052,39.212 C67.7906667,40.4733333 67.16,41.808 67.16,43.216 C67.16,44.1546667 67.4826667,44.9466667 68.128,45.592 C68.7733333,46.2373333 69.8586667,46.56 71.384,46.56 C72.8506667,46.56 74.024,46.1933333 74.904,45.46 C75.784,44.7266667 76.312,43.4506667 76.488,41.632 C76.5466667,40.8693333 76.708,39.9306667 76.972,38.816 C77.236,37.7013333 77.7346667,36.6893333 78.468,35.78 C79.2013333,34.8706667 80.3013333,34.416 81.768,34.416 C83.2933333,34.416 84.3493333,35.2813333 84.936,37.012 C85.5226667,38.7426667 85.816,41.456 85.816,45.152 L85.816,45.152 L85.815,50.143 L77.896,53.072 C76.4410667,53.5882667 75.02368,54.0951467 73.64384,54.59264 L72.616,54.964 C70.9146667,55.58 69.536,56.4013333 68.48,57.428 C67.424,58.4546667 66.896,59.936 66.896,61.872 C66.896,63.808 67.5266667,65.348 68.788,66.492 C70.0493333,67.636 71.9706667,68.208 74.552,68.208 C76.0773333,68.208 77.4266667,67.988 78.6,67.548 C79.7733333,67.108 81.0053333,66.3893333 82.296,65.392 L82.296,65.392 L86.023,62.729 L86.0310028,62.7790582 C86.2562438,64.0446981 86.6584598,65.103867 87.237651,65.9565651 L87.4,66.184 C88.456,67.592 89.512,68.296 90.568,68.296 Z M81.064,63.544 C80.0666667,63.544 79.0693333,63.1773333 78.072,62.444 C77.0746667,61.7106667 76.576,60.5813333 76.576,59.056 C76.576,57.7066667 76.928,56.6653333 77.632,55.932 C78.336,55.1986667 79.128,54.6413333 80.008,54.26 C80.888,53.8786667 81.5626667,53.6 82.032,53.424 L82.032,53.424 L85.815,51.698 L85.816,60.112 C85.816,60.3898947 85.8218504,60.660964 85.8335512,60.9252078 L85.854,61.293 L83.968,62.576 C83.4546667,62.9353333 82.9974792,63.182375 82.5964375,63.317125 L82.428,63.368 C81.988,63.4853333 81.5333333,63.544 81.064,63.544 Z M116.44,92.408 C119.432,92.408 122.277333,91.8946667 124.976,90.868 C127.674667,89.8413333 130.050667,88.448 132.104,86.688 C134.157333,84.928 135.770667,82.9186667 136.944,80.66 C138.117333,78.4013333 138.704,76.0106667 138.704,73.488 C138.704,71.2 138.234667,69.4106667 137.296,68.12 C136.357333,66.8293333 135.096,65.8906667 133.512,65.304 C131.928,64.7173333 130.182667,64.3506667 128.276,64.204 C126.369333,64.0573333 124.418667,63.984 122.424,63.984 C120.253333,63.9253333 118.346667,63.8226667 116.704,63.676 C115.061333,63.5293333 113.785333,63.104 112.876,62.4 C111.966667,61.696 111.512,60.5226667 111.512,58.88 C111.512,57.648 111.805333,56.6066667 112.392,55.756 C112.498667,55.6013333 112.61503,55.4490909 112.741091,55.2992727 L112.889,55.132 L112.948623,55.1511142 C114.314805,55.5977116 115.812937,55.8413103 117.443017,55.88191 L117.936,55.888 C120.4,55.888 122.82,55.404 125.196,54.436 C127.572,53.468 129.537333,52.104 131.092,50.344 C132.646667,48.584 133.424,46.472 133.424,44.008 C133.424,41.896 132.822667,40.0186667 131.62,38.376 C131.459644,38.1569778 131.291727,37.9439526 131.116249,37.7369244 L131.073,37.688 L131.22675,37.68025 L131.22675,37.68025 L131.752,37.672 C132.808,37.672 133.893333,37.804 135.008,38.068 C136.122667,38.332 137.208,38.6986667 138.264,39.168 C138.498667,39.344 138.733333,38.9333333 138.968,37.936 C139.202667,36.9386667 139.32,36.0293333 139.32,35.208 C139.32,34.504 139.276,33.9173333 139.188,33.448 C139.1,32.9786667 138.909333,32.744 138.616,32.744 C136.445333,32.744 134.465333,33.1253333 132.676,33.888 C131.632222,34.3328889 130.573472,34.8975556 129.49975,35.582 L129.086,35.852 L128.99584,35.78352 C128.424818,35.3708978 127.806536,34.995757 127.140996,34.6580978 L126.736,34.46 C124.682667,33.492 122.306667,33.008 119.608,33.008 C117.261333,33.008 114.9,33.404 112.524,34.196 C110.148,34.988 108.168,36.2053333 106.584,37.848 C105,39.4906667 104.208,41.544 104.208,44.008 C104.208,45.944 104.765333,47.8213333 105.88,49.64 C106.994667,51.4586667 108.578667,52.9546667 110.632,54.128 C110.752784,54.1970196 110.874888,54.2640092 110.998311,54.3289689 L111.341,54.502 L110.996172,54.7286349 C109.56263,55.6896508 108.411646,56.7177143 107.54322,57.8128254 L107.332,58.088 C105.894667,60.024 105.176,62.0186667 105.176,64.072 C105.176,66.1253333 105.836,67.636 107.156,68.604 C108.3,69.4429333 109.697375,70.0284919 111.348124,70.3606756 L111.577,70.404 L111.417714,70.5085714 C108.357619,72.5325714 106.198083,74.4180238 104.939107,76.1649286 L104.78,76.392 C103.342667,78.504 102.624,80.4986667 102.624,82.376 C102.624,85.368 103.914667,87.788 106.496,89.636 C109.077333,91.484 112.392,92.408 116.44,92.408 Z M120.224,54.304 C118.992,54.304 117.804,53.7466667 116.66,52.632 C115.516,51.5173333 114.577333,49.992 113.844,48.056 C113.110667,46.12 112.744,43.8906667 112.744,41.368 C112.744,39.256 113.052,37.6133333 113.668,36.44 C114.284,35.2666667 115.296,34.68 116.704,34.68 C117.877333,34.68 119.094667,35.1053333 120.356,35.956 C121.617333,36.8066667 122.673333,38.0973333 123.524,39.828 C124.374667,41.5586667 124.8,43.7733333 124.8,46.472 C124.8,49.3466667 124.330667,51.3706667 123.392,52.544 C122.453333,53.7173333 121.397333,54.304 120.224,54.304 Z M121.72,89.592 C119.842667,89.592 118.053333,89.152 116.352,88.272 C114.650667,87.392 113.257333,86.0866667 112.172,84.356 C111.086667,82.6253333 110.544,80.44 110.544,77.8 C110.544,76.568 110.676,75.4826667 110.94,74.544 C111.204,73.6053333 111.6,72.7986667 112.128,72.124 C112.505143,71.6420952 112.927184,71.2125714 113.394122,70.8354286 L113.585,70.688 L113.837714,70.7186939 C114.977524,70.848 116.117333,70.9389932 117.257143,70.9916735 L118.112,71.024 C120.752,71.024 123.069333,71.156 125.064,71.42 C127.058667,71.684 128.628,72.3733333 129.772,73.488 C130.916,74.6026667 131.488,76.48 131.488,79.12 C131.488,82.3466667 130.593333,84.8986667 128.804,86.776 C127.014667,88.6533333 124.653333,89.592 121.72,89.592 Z M206.904,67.592 C207.138667,67.592 207.256,67.416 207.256,67.064 C207.256,66.712 207.138667,66.536 206.904,66.536 C205.085333,66.536 203.838667,66.1106667 203.164,65.26 C202.489333,64.4093333 202.152,62.8106667 202.152,60.464 L202.152,60.464 L202.152,43.568 C202.152,39.8133333 201.301333,37.0413333 199.6,35.252 C197.898667,33.4626667 195.493333,32.568 192.384,32.568 C189.450667,32.568 186.737333,33.4626667 184.244,35.252 C182.374,36.594 180.64425,38.25775 179.05475,40.24325 L178.95,40.377 C178.655346,38.2815536 177.920038,36.5985408 176.744077,35.3279616 L176.544,35.12 C174.842667,33.4186667 172.437333,32.568 169.328,32.568 C166.394667,32.568 163.681333,33.4626667 161.188,35.252 C159.629667,36.3703333 158.168729,37.7121042 156.805187,39.2773125 L156.453,39.691 L156.449855,39.5879031 C156.362768,37.7353356 156.086994,36.2429896 155.622533,35.1108651 L155.512,34.856 C154.866667,33.448 154.221333,32.744 153.576,32.744 C153.517333,32.744 153.312,32.8026667 152.96,32.92 L152.96,32.92 L140.728,38.904 C140.610667,38.9626667 140.610667,39.168 140.728,39.52 C140.845333,39.872 141.021333,39.9893333 141.256,39.872 C142.136,39.4613333 142.928,39.1533333 143.632,38.948 C144.336,38.7426667 144.952,38.64 145.48,38.64 C146.477333,38.64 147.181333,39.0653333 147.592,39.916 C148.002667,40.7666667 148.208,42.1013333 148.208,43.92 L148.208,43.92 L148.208,60.464 C148.208,62.8106667 147.885333,64.4093333 147.24,65.26 C146.594667,66.1106667 145.362667,66.536 143.544,66.536 C143.368,66.536 143.28,66.712 143.28,67.064 C143.28,67.416 143.368,67.592 143.544,67.592 C144.717333,67.592 146.066667,67.5626667 147.592,67.504 C149.117333,67.4453333 150.701333,67.416 152.344,67.416 C154.045333,67.416 155.658667,67.4453333 157.184,67.504 C158.709333,67.5626667 160.058667,67.592 161.232,67.592 C161.408,67.592 161.496,67.416 161.496,67.064 C161.496,66.712 161.408,66.536 161.232,66.536 C159.413333,66.536 158.166667,66.1106667 157.492,65.26 C156.817333,64.4093333 156.48,62.8106667 156.48,60.464 L156.48,60.464 L156.479,41.565 L156.722,41.346 C157.312857,40.8305714 157.96298,40.3744082 158.672367,39.9775102 L159.032,39.784 C160.733333,38.904 162.493333,38.464 164.312,38.464 C168.712,38.464 170.912,41.5733333 170.912,47.792 L170.912,47.792 L170.912,60.464 C170.912,62.8106667 170.574667,64.4093333 169.9,65.26 C169.225333,66.1106667 167.978667,66.536 166.16,66.536 C165.984,66.536 165.896,66.712 165.896,67.064 C165.896,67.416 165.984,67.592 166.16,67.592 C167.333333,67.592 168.682667,67.5626667 170.208,67.504 C171.733333,67.4453333 173.317333,67.416 174.96,67.416 C176.661333,67.416 178.274667,67.4453333 179.8,67.504 C181.325333,67.5626667 182.674667,67.592 183.848,67.592 C184.082667,67.592 184.2,67.416 184.2,67.064 C184.2,66.712 184.082667,66.536 183.848,66.536 C182.029333,66.536 180.782667,66.1106667 180.108,65.26 C179.433333,64.4093333 179.096,62.8106667 179.096,60.464 L179.096,60.464 L179.096,42.6 C179.096,42.4685867 179.094639,42.3384405 179.091917,42.2095616 L179.085,42.009 L179.206898,41.8811837 C179.942027,41.1412653 180.782517,40.5067075 181.728367,39.9775102 L182.088,39.784 C183.789333,38.904 185.549333,38.464 187.368,38.464 C191.768,38.464 193.968,41.5733333 193.968,47.792 L193.968,47.792 L193.968,60.464 C193.968,62.8106667 193.630667,64.4093333 192.956,65.26 C192.281333,66.1106667 191.034667,66.536 189.216,66.536 C189.04,66.536 188.952,66.712 188.952,67.064 C188.952,67.416 189.04,67.592 189.216,67.592 C190.389333,67.592 191.738667,67.5626667 193.264,67.504 C194.789333,67.4453333 196.373333,67.416 198.016,67.416 C199.717333,67.416 201.330667,67.4453333 202.856,67.504 C204.381333,67.5626667 205.730667,67.592 206.904,67.592 Z M229.168,68.648 C231.749333,68.648 234.169333,68.1933333 236.428,67.284 C238.686667,66.3746667 240.901333,64.8346667 243.072,62.664 C243.189333,62.488 243.145333,62.2826667 242.94,62.048 C242.734667,61.8133333 242.573333,61.7546667 242.456,61.872 C240.989333,62.6346667 239.654667,63.236 238.452,63.676 C237.249333,64.116 235.768,64.336 234.008,64.336 C231.016,64.336 228.493333,63.6613333 226.44,62.312 C224.386667,60.9626667 222.832,59.056 221.776,56.592 C220.72,54.128 220.192,51.1946667 220.192,47.792 C220.192,47.0982029 220.212849,46.4283604 220.254548,45.7824726 L220.256,45.754 L236.295,45.68 L241.664,45.68 C242.037333,45.68 242.289455,45.4618182 242.420364,45.0254545 L242.456,44.888 C242.573333,44.36 242.632,43.7146667 242.632,42.952 C242.632,39.3733333 241.590667,36.792 239.508,35.208 C237.425333,33.624 234.653333,32.832 231.192,32.832 C227.32,32.832 223.888,33.6826667 220.896,35.384 C217.904,37.0853333 215.557333,39.344 213.856,42.16 C212.154667,44.976 211.304,48.1146667 211.304,51.576 C211.304,54.568 211.993333,57.3693333 213.372,59.98 C214.750667,62.5906667 216.774667,64.688 219.444,66.272 C222.113333,67.856 225.354667,68.648 229.168,68.648 Z M220.427,44.035 L220.442193,43.916673 C220.754934,41.6742533 221.36087,39.7686957 222.26,38.2 C223.638667,35.7946667 225.501333,34.592 227.848,34.592 C230.018667,34.592 231.485333,35.604 232.248,37.628 C232.850105,39.2258947 233.177972,41.2351468 233.231601,43.6557562 L233.233,43.8 L220.427,44.035 Z M290.064,67.592 C290.24,67.592 290.328,67.416 290.328,67.064 C290.328,66.712 290.24,66.536 290.064,66.536 C288.245333,66.536 286.998667,66.1106667 286.324,65.26 C285.649333,64.4093333 285.312,62.8106667 285.312,60.464 L285.312,60.464 L285.312,43.568 C285.312,40.3413333 284.417333,37.7013333 282.628,35.648 C280.838667,33.5946667 278.301333,32.568 275.016,32.568 C271.965333,32.568 269.149333,33.4626667 266.568,35.252 C264.897725,36.4098039 263.337984,37.8070957 261.888775,39.4438754 L261.616,39.759 L261.609855,39.5879031 C261.522768,37.7353356 261.246994,36.2429896 260.782533,35.1108651 L260.672,34.856 C260.026667,33.448 259.381333,32.744 258.736,32.744 C258.677333,32.744 258.472,32.8026667 258.12,32.92 L258.12,32.92 L245.888,38.904 C245.770667,38.9626667 245.770667,39.168 245.888,39.52 C246.005333,39.872 246.181333,39.9893333 246.416,39.872 C247.296,39.4613333 248.088,39.1533333 248.792,38.948 C249.496,38.7426667 250.112,38.64 250.64,38.64 C251.637333,38.64 252.341333,39.0653333 252.752,39.916 C253.162667,40.7666667 253.368,42.1013333 253.368,43.92 L253.368,43.92 L253.368,60.464 C253.368,62.8106667 253.045333,64.4093333 252.4,65.26 C251.754667,66.1106667 250.522667,66.536 248.704,66.536 C248.528,66.536 248.44,66.712 248.44,67.064 C248.44,67.416 248.528,67.592 248.704,67.592 C249.877333,67.592 251.226667,67.5626667 252.752,67.504 C254.277333,67.4453333 255.861333,67.416 257.504,67.416 C259.205333,67.416 260.818667,67.4453333 262.344,67.504 C263.869333,67.5626667 265.218667,67.592 266.392,67.592 C266.568,67.592 266.656,67.416 266.656,67.064 C266.656,66.712 266.568,66.536 266.392,66.536 C264.573333,66.536 263.326667,66.1106667 262.652,65.26 C261.977333,64.4093333 261.64,62.8106667 261.64,60.464 L261.64,60.464 L261.639,41.656 L261.856089,41.4673422 C262.53597,40.8960593 263.295704,40.3950459 264.135289,39.9643022 L264.5,39.784 C266.348,38.904 268.152,38.464 269.912,38.464 C272.376,38.464 274.18,39.2266667 275.324,40.752 C276.468,42.2773333 277.04,44.624 277.04,47.792 L277.04,47.792 L277.04,60.464 C277.04,62.8106667 276.717333,64.4093333 276.072,65.26 C275.426667,66.1106667 274.194667,66.536 272.376,66.536 C272.2,66.536 272.112,66.712 272.112,67.064 C272.112,67.416 272.2,67.592 272.376,67.592 C273.549333,67.592 274.898667,67.5626667 276.424,67.504 C277.949333,67.4453333 279.533333,67.416 281.176,67.416 C282.877333,67.416 284.490667,67.4453333 286.016,67.504 C287.541333,67.5626667 288.890667,67.592 290.064,67.592 Z M307.752,68.648 C310.098667,68.648 312.284,68.1346667 314.308,67.108 C316.332,66.0813333 318.429333,64.4826667 320.6,62.312 C320.834667,62.136 320.82,61.916 320.556,61.652 C320.292,61.388 320.072,61.344 319.896,61.52 C319.074667,62.1653333 318.062667,62.7666667 316.86,63.324 C315.657333,63.8813333 314.381333,64.16 313.032,64.16 C311.272,64.16 309.790667,63.6613333 308.588,62.664 C307.385333,61.6666667 306.784,59.9946667 306.784,57.648 L306.784,57.648 L306.783,36.759 L307.389,36.781 C308.2855,36.8195 309.163437,36.8724375 310.022812,36.9398125 L310.876,37.012 C313.134667,37.2173333 315.466667,37.584 317.872,38.112 C318.106667,38.1706667 318.326667,37.9213333 318.532,37.364 C318.737333,36.8066667 318.84,36.2346667 318.84,35.648 C318.84,35.12 318.766667,34.636 318.62,34.196 C318.473333,33.756 318.341333,33.536 318.224,33.536 C315.584,33.7706667 313.105333,33.976 310.788,34.152 C309.629333,34.24 308.459667,34.306 307.279,34.35 L306.783,34.365 L306.784,27.288 C306.784,27.0794074 306.63335,26.9635226 306.332049,26.9403457 L306.212,26.936 C305.830667,26.936 305.581333,27.0533333 305.464,27.288 C304.525333,29.6346667 303.117333,31.4093333 301.24,32.612 C299.362667,33.8146667 296.928,34.4746667 293.936,34.592 C293.701333,34.592 293.584,34.856 293.584,35.384 C293.584,35.912 293.701333,36.176 293.936,36.176 C295.050667,36.176 295.930667,36.3226667 296.576,36.616 C297.221333,36.9093333 297.690667,37.408 297.984,38.112 C298.277333,38.816 298.424,39.784 298.424,41.016 L298.424,41.016 L298.424,60.552 C298.424,62.664 298.908,64.3066667 299.876,65.48 C300.844,66.6533333 302.046667,67.4746667 303.484,67.944 C304.921333,68.4133333 306.344,68.648 307.752,68.648 Z M334.68,68.56 C337.613333,68.56 340.048,68.0026667 341.984,66.888 C343.92,65.7733333 345.372,64.3213333 346.34,62.532 C347.308,60.7426667 347.792,58.9093333 347.792,57.032 C347.792,54.9786667 347.322667,53.3066667 346.384,52.016 C345.445333,50.7253333 344.272,49.6253333 342.864,48.716 C341.456,47.8066667 340.018667,46.9413333 338.552,46.12 C337.32,45.3573333 336.176,44.58 335.12,43.788 C334.064,42.996 333.198667,42.116 332.524,41.148 C331.849333,40.18 331.512,39.08 331.512,37.848 C331.512,36.3813333 331.908,35.4426667 332.7,35.032 C333.492,34.6213333 334.298667,34.416 335.12,34.416 C336.821333,34.416 338.405333,34.9 339.872,35.868 C341.338667,36.836 342.526667,37.9653333 343.436,39.256 C344.345333,40.5466667 344.8,41.7493333 344.8,42.864 C344.8,43.04 344.976,43.128 345.328,43.128 C345.68,43.128 345.856,43.04 345.856,42.864 C345.856,41.3386667 345.885333,39.9453333 345.944,38.684 C346.002667,37.4226667 346.032,36.2053333 346.032,35.032 C346.032,34.5626667 345.768,34.24 345.24,34.064 C343.832,33.536 342.585333,33.184 341.5,33.008 C340.414667,32.832 339.226667,32.744 337.936,32.744 C335.824,32.744 333.785333,33.0666667 331.82,33.712 C329.854667,34.3573333 328.256,35.4133333 327.024,36.88 C325.792,38.3466667 325.176,40.312 325.176,42.776 C325.176,44.8293333 325.616,46.4866667 326.496,47.748 C327.376,49.0093333 328.490667,50.0506667 329.84,50.872 C331.189333,51.6933333 332.538667,52.4853333 333.888,53.248 C335.061333,53.8933333 336.205333,54.612 337.32,55.404 C338.434667,56.196 339.358667,57.1346667 340.092,58.22 C340.825333,59.3053333 341.192,60.6693333 341.192,62.312 C341.192,63.8373333 340.810667,64.9666667 340.048,65.7 C339.285333,66.4333333 338.317333,66.8 337.144,66.8 C335.618667,66.8 334.108,66.316 332.612,65.348 C331.116,64.38 329.781333,63.0893333 328.608,61.476 C327.434667,59.8626667 326.525333,58.1173333 325.88,56.24 C325.821333,56.1226667 325.630667,56.0786667 325.308,56.108 C324.985333,56.1373333 324.824,56.24 324.824,56.416 L324.824,56.416 L325,65.128 C325,65.3626667 325.058667,65.568 325.176,65.744 C325.293333,65.92 325.410667,66.0666667 325.528,66.184 C327.229333,67.1226667 328.813333,67.7533333 330.28,68.076 C331.746667,68.3986667 333.213333,68.56 334.68,68.56 Z M395.488,68.648 C399.477333,68.648 402.909333,68.1053333 405.784,67.02 C408.299333,66.0703333 410.466563,64.8399375 412.285687,63.3288125 L412.344,63.279 L412.398626,63.3177839 C412.835457,63.6311062 413.248236,63.9203767 413.636964,64.1855956 L413.924,64.38 C415.713333,65.5826667 417.136,66.4186667 418.192,66.888 C419.248,67.3573333 420.098667,67.592 420.744,67.592 L420.744,67.592 L435.176,67.592 C435.352,67.592 435.454667,67.4306667 435.484,67.108 C435.513333,66.7853333 435.410667,66.5946667 435.176,66.536 C433.709333,66.1253333 431.48,65.1133333 428.488,63.5 C425.496,61.8866667 421.917333,59.5253333 417.752,56.416 L417.968,56.577 L418.29521,56.0102222 C419.233152,54.3447407 420.020263,52.6792593 420.656543,51.0137778 L420.92,50.3 C421.682667,48.1586667 422.298667,46.2373333 422.768,44.536 C423.237333,42.8346667 423.692,41.5 424.132,40.532 C424.572,39.564 425.232,38.8746667 426.112,38.464 C426.992,38.0533333 428.312,37.848 430.072,37.848 C430.248,37.848 430.336,37.672 430.336,37.32 C430.336,36.968 430.248,36.792 430.072,36.792 L430.072,36.792 L409.128,36.88 C408.952,36.88 408.878667,37.056 408.908,37.408 C408.937333,37.76 409.010667,37.936 409.128,37.936 C411.709333,37.936 413.542667,38.728 414.628,40.312 C415.713333,41.896 416.256,44.36 416.256,47.704 C416.256,50.344 415.977333,52.7053333 415.42,54.788 L415.461,54.623 L414.91268,54.17992 C413.02772,52.64168 411.1586,51.0084 409.30532,49.28008 L408.38,48.408 C405.3,45.4746667 402.513333,42.3946667 400.02,39.168 C399.355111,38.3075556 398.725683,37.4429393 398.131716,36.5741511 L397.837,36.138 L398.147755,35.9263673 L398.147755,35.9263673 L399.096,35.296 C401.325333,33.8293333 403.437333,32.3333333 405.432,30.808 C407.426667,29.2826667 409.054667,27.6106667 410.316,25.792 C411.577333,23.9733333 412.208,21.8906667 412.208,19.544 C412.208,17.6666667 411.724,16.0826667 410.756,14.792 C409.788,13.5013333 408.424,12.504 406.664,11.8 C404.904,11.096 402.821333,10.744 400.416,10.744 C396.896,10.744 393.874667,11.448 391.352,12.856 C388.829333,14.264 386.893333,16.2 385.544,18.664 C384.194667,21.128 383.52,23.9146667 383.52,27.024 C383.52,28.9013333 383.754667,30.588 384.224,32.084 C384.693333,33.58 385.309333,35.0613333 386.072,36.528 C386.776,37.8186667 387.593667,39.1276667 388.525,40.455 L388.779,40.813 L388.13102,41.2988571 C386.91219,42.2207619 385.731673,43.1426667 384.589469,44.0645714 L383.74,44.756 C381.774667,46.3693333 380.176,48.0853333 378.944,49.904 C377.712,51.7226667 377.096,53.776 377.096,56.064 C377.096,58.1173333 377.741333,60.112 379.032,62.048 C380.322667,63.984 382.332,65.568 385.06,66.8 C387.788,68.032 391.264,68.648 395.488,68.648 Z M396.689,34.34 L396.456196,33.9552711 C395.540865,32.4202904 394.734133,30.8725333 394.036,29.312 C392.54,25.968 391.792,22.6826667 391.792,19.456 C391.792,17.4026667 392.144,15.8333333 392.848,14.748 C393.552,13.6626667 394.725333,13.12 396.368,13.12 C398.245333,13.12 399.8,13.8386667 401.032,15.276 C402.264,16.7133333 402.88,18.752 402.88,21.392 C402.88,24.1493333 402.264,26.6133333 401.032,28.784 C399.989538,30.6207179 398.684552,32.3314241 397.117041,33.9161183 L396.689,34.34 Z M402.264,64.336 C398.861333,64.336 395.942667,63.6906667 393.508,62.4 C391.073333,61.1093333 389.210667,59.452 387.92,57.428 C386.629333,55.404 385.984,53.2773333 385.984,51.048 C385.984,48.7013333 386.614667,46.6186667 387.876,44.8 C388.458154,43.9606154 389.118414,43.1524734 389.856781,42.375574 L389.904,42.326 L390.232918,42.7483878 C390.536129,43.1336122 390.848619,43.5203333 391.170388,43.908551 L391.66,44.492 C393.977333,47.22 396.485333,49.8453333 399.184,52.368 C401.882667,54.8906667 404.464,57.1493333 406.928,59.144 C408.289684,60.2277895 409.529607,61.1898172 410.647767,62.0300831 L410.679,62.055 L410.605143,62.1072653 C410.070857,62.4724354 409.497286,62.7945782 408.884429,63.0736939 L408.512,63.236 C406.752,63.9693333 404.669333,64.336 402.264,64.336 Z M502.76,67.592 C502.936,67.592 503.024,67.416 503.024,67.064 C503.024,66.712 502.936,66.536 502.76,66.536 C500.941333,66.536 499.694667,66.1106667 499.02,65.26 C498.345333,64.4093333 498.008,62.8106667 498.008,60.464 L498.008,60.464 L498.008,3.264 C498.008,3.088 497.832,3 497.48,3 C497.128,3 496.952,3.088 496.952,3.264 C496.952,4.20266667 496.673333,5.2 496.116,6.256 C495.964,6.544 495.792364,6.82 495.601091,7.084 L495.437,7.3 L495.209959,7.13420408 C494.218612,6.43379592 493.045429,5.794 491.690408,5.21481633 L491.232,5.024 C489.061333,4.144 486.333333,3.704 483.048,3.704 C476.36,3.704 471.329333,5.78666667 467.956,9.952 C464.582667,14.1173333 462.749333,21.0693333 462.456,30.808 C462.397333,32.2746667 461.986667,33.2866667 461.224,33.844 C460.461333,34.4013333 459.053333,34.68 457,34.68 C456.824,34.68 456.736,34.944 456.736,35.472 C456.736,36 456.824,36.264 457,36.264 C458.408,36.264 459.522667,36.3666667 460.344,36.572 C461.165333,36.7773333 461.752,37.188 462.104,37.804 C462.456,38.42 462.632,39.3733333 462.632,40.664 L462.632,40.664 L462.632,60.464 C462.632,62.9866667 462.309333,64.6293333 461.664,65.392 C461.018667,66.1546667 459.581333,66.536 457.352,66.536 C457.117333,66.536 457,66.712 457,67.064 C457,67.416 457.117333,67.592 457.352,67.592 C458.642667,67.592 460.094667,67.5626667 461.708,67.504 C463.321333,67.4453333 464.978667,67.416 466.68,67.416 C468.733333,67.416 470.742667,67.4453333 472.708,67.504 C474.673333,67.5626667 476.682667,67.592 478.736,67.592 C478.970667,67.592 479.088,67.416 479.088,67.064 C479.088,66.712 478.970667,66.536 478.736,66.536 C476.448,66.536 474.746667,66.3893333 473.632,66.096 C472.517333,65.8026667 471.784,65.216 471.432,64.336 C471.08,63.456 470.904,62.1653333 470.904,60.464 L470.904,60.464 L470.903,36.801 L471.365312,36.8243125 C471.910729,36.8563958 472.447896,36.8948958 472.976812,36.9398125 L473.764,37.012 C475.846667,37.2173333 478.032,37.584 480.32,38.112 C480.496,38.1706667 480.686667,37.9213333 480.892,37.364 C481.097333,36.8066667 481.2,36.2346667 481.2,35.648 C481.2,35.12 481.141333,34.636 481.024,34.196 C480.906667,33.756 480.76,33.536 480.584,33.536 C478.178667,33.7706667 475.890667,33.976 473.72,34.152 C472.996444,34.2106667 472.26963,34.2595556 471.539556,34.2986667 L470.903,34.329 L470.904,28.96 C470.904,23.49696 471.28247,19.0611968 472.039411,15.6527104 L472.136,15.232 C472.957333,11.7706667 474.101333,9.248 475.568,7.664 C477.034667,6.08 478.706667,5.288 480.584,5.288 C482.52,5.288 484.382667,6.09466667 486.172,7.708 C487.514,8.918 488.68275,10.40025 489.67825,12.15475 L489.735,12.259 L489.736,60.464 C489.736,62.6933333 489.431557,64.2475967 488.82267,65.12679 L488.724,65.26 C488.049333,66.1106667 486.832,66.536 485.072,66.536 C484.896,66.536 484.808,66.712 484.808,67.064 C484.808,67.416 484.896,67.592 485.072,67.592 C486.245333,67.592 487.58,67.5626667 489.076,67.504 C490.572,67.4453333 492.141333,67.416 493.784,67.416 C495.544,67.416 497.186667,67.4453333 498.712,67.504 C500.237333,67.5626667 501.586667,67.592 502.76,67.592 Z M525.728,68.736 C529.189333,68.736 532.386667,67.988 535.32,66.492 C538.253333,64.996 540.614667,62.884 542.404,60.156 C544.193333,57.428 545.088,54.2746667 545.088,50.696 C545.088,47.5866667 544.384,44.6533333 542.976,41.896 C541.568,39.1386667 539.529333,36.88 536.86,35.12 C534.190667,33.36 530.978667,32.48 527.224,32.48 C524.994667,32.48 522.736,32.832 520.448,33.536 C518.16,34.24 516.048,35.3106667 514.112,36.748 C512.176,38.1853333 510.621333,40.0186667 509.448,42.248 C508.274667,44.4773333 507.688,47.1173333 507.688,50.168 C507.688,53.4533333 508.421333,56.5186667 509.888,59.364 C511.354667,62.2093333 513.437333,64.4826667 516.136,66.184 C518.834667,67.8853333 522.032,68.736 525.728,68.736 Z M528.368,66.888 C526.314667,66.888 524.437333,66.0666667 522.736,64.424 C521.034667,62.7813333 519.685333,60.4493333 518.688,57.428 C517.690667,54.4066667 517.192,50.9013333 517.192,46.912 C517.192,42.6293333 517.793333,39.4613333 518.996,37.408 C520.198667,35.3546667 521.944,34.328 524.232,34.328 C526.109333,34.328 527.898667,35.0613333 529.6,36.528 C531.301333,37.9946667 532.694667,40.1653333 533.78,43.04 C534.865333,45.9146667 535.408,49.4933333 535.408,53.776 C535.408,57.9413333 534.821333,61.168 533.648,63.456 C532.474667,65.744 530.714667,66.888 528.368,66.888 Z M589.484,67.856 C590.041333,67.856 590.349333,67.7386667 590.408,67.504 L590.408,67.504 L601.232,42.6 C602.405333,39.8426667 603.652,37.8333333 604.972,36.572 C606.292,35.3106667 607.773333,34.68 609.416,34.68 C609.592,34.68 609.68,34.504 609.68,34.152 C609.68,33.8 609.592,33.624 609.416,33.624 C608.125333,33.624 607.04,33.6533333 606.16,33.712 C605.28,33.7706667 604.106667,33.8 602.64,33.8 L602.148972,33.7993889 C600.376546,33.7949074 598.912222,33.7657778 597.756,33.712 C596.494667,33.6533333 595.189333,33.624 593.84,33.624 C593.664,33.624 593.576,33.8 593.576,34.152 C593.576,34.504 593.664,34.68 593.84,34.68 C596.128,34.68 597.770667,35.384 598.768,36.792 C599.765333,38.2 599.765333,40.1066667 598.768,42.512 L598.768,42.512 L592.928,56.604 L583.104,38.112 C582.549926,37.0592593 582.597638,36.242 583.247136,35.6602222 L583.368,35.56 C584.130667,34.9733333 585.245333,34.68 586.712,34.68 C586.829333,34.68 586.888,34.504 586.888,34.152 C586.888,33.8 586.829333,33.624 586.712,33.624 C585.421333,33.624 583.998667,33.6533333 582.444,33.712 C580.889333,33.7706667 579.026667,33.8 576.856,33.8 L576.416521,33.7994793 C574.687763,33.7953136 573.308923,33.7661538 572.28,33.712 C571.165333,33.6533333 570.168,33.624 569.288,33.624 C569.170667,33.624 569.112,33.8 569.112,34.152 C569.112,34.504 569.170667,34.68 569.288,34.68 C570.402667,34.68 571.312,35.0906667 572.016,35.912 C572.72,36.7333333 573.717333,38.4053333 575.008,40.928 L575.008,40.928 L576.53,43.933 L571.305,56.541 L561.104,38.112 C560.376,36.824 560.436455,35.9369091 561.285364,35.4507273 L561.412,35.384 C562.38,34.9146667 563.597333,34.68 565.064,34.68 C565.24,34.68 565.328,34.504 565.328,34.152 C565.328,33.8 565.24,33.624 565.064,33.624 C563.773333,33.624 562.350667,33.6533333 560.796,33.712 C559.241333,33.7706667 557.378667,33.8 555.208,33.8 L554.749816,33.799551 C552.79451,33.7956599 551.231238,33.7664762 550.06,33.712 C548.798667,33.6533333 547.669333,33.624 546.672,33.624 C546.496,33.624 546.408,33.8 546.408,34.152 C546.408,34.504 546.496,34.68 546.672,34.68 C547.962667,34.68 549.077333,35.0613333 550.016,35.824 C550.954667,36.5866667 552.069333,38.288 553.36,40.928 L553.36,40.928 L566.824,67.504 C566.941333,67.7386667 567.278667,67.856 567.836,67.856 C568.393333,67.856 568.701333,67.7386667 568.76,67.504 L568.76,67.504 L577.862,46.561 L588.472,67.504 C588.576296,67.7125926 588.85442,67.8284774 589.30637,67.8516543 L589.484,67.856 Z M621.736,68.56 C624.669333,68.56 627.104,68.0026667 629.04,66.888 C630.976,65.7733333 632.428,64.3213333 633.396,62.532 C634.364,60.7426667 634.848,58.9093333 634.848,57.032 C634.848,54.9786667 634.378667,53.3066667 633.44,52.016 C632.501333,50.7253333 631.328,49.6253333 629.92,48.716 C628.512,47.8066667 627.074667,46.9413333 625.608,46.12 C624.376,45.3573333 623.232,44.58 622.176,43.788 C621.12,42.996 620.254667,42.116 619.58,41.148 C618.905333,40.18 618.568,39.08 618.568,37.848 C618.568,36.3813333 618.964,35.4426667 619.756,35.032 C620.548,34.6213333 621.354667,34.416 622.176,34.416 C623.877333,34.416 625.461333,34.9 626.928,35.868 C628.394667,36.836 629.582667,37.9653333 630.492,39.256 C631.401333,40.5466667 631.856,41.7493333 631.856,42.864 C631.856,43.04 632.032,43.128 632.384,43.128 C632.736,43.128 632.912,43.04 632.912,42.864 C632.912,41.3386667 632.941333,39.9453333 633,38.684 C633.058667,37.4226667 633.088,36.2053333 633.088,35.032 C633.088,34.5626667 632.824,34.24 632.296,34.064 C630.888,33.536 629.641333,33.184 628.556,33.008 C627.470667,32.832 626.282667,32.744 624.992,32.744 C622.88,32.744 620.841333,33.0666667 618.876,33.712 C616.910667,34.3573333 615.312,35.4133333 614.08,36.88 C612.848,38.3466667 612.232,40.312 612.232,42.776 C612.232,44.8293333 612.672,46.4866667 613.552,47.748 C614.432,49.0093333 615.546667,50.0506667 616.896,50.872 C618.245333,51.6933333 619.594667,52.4853333 620.944,53.248 C622.117333,53.8933333 623.261333,54.612 624.376,55.404 C625.490667,56.196 626.414667,57.1346667 627.148,58.22 C627.881333,59.3053333 628.248,60.6693333 628.248,62.312 C628.248,63.8373333 627.866667,64.9666667 627.104,65.7 C626.341333,66.4333333 625.373333,66.8 624.2,66.8 C622.674667,66.8 621.164,66.316 619.668,65.348 C618.172,64.38 616.837333,63.0893333 615.664,61.476 C614.490667,59.8626667 613.581333,58.1173333 612.936,56.24 C612.877333,56.1226667 612.686667,56.0786667 612.364,56.108 C612.041333,56.1373333 611.88,56.24 611.88,56.416 L611.88,56.416 L612.056,65.128 C612.056,65.3626667 612.114667,65.568 612.232,65.744 C612.349333,65.92 612.466667,66.0666667 612.584,66.184 C614.285333,67.1226667 615.869333,67.7533333 617.336,68.076 C618.802667,68.3986667 620.269333,68.56 621.736,68.56 Z">
  </path>
</svg>