<?xml version="1.0" encoding="UTF-8"?>
<svg width="96px" height="96px" viewBox="0 0 96 96" version="1.1" xmlns="http://www.w3.org/2000/svg"
    xmlns:xlink="http://www.w3.org/1999/xlink">
    <g id="Artboard" stroke="none" stroke-width="1" fill="none" fill-rule="evenodd">
        <path
            d="M64.312,79.888 C64.5466667,79.888 64.664,79.712 64.664,79.36 C64.664,79.008 64.5466667,78.832 64.312,78.832 C62.024,78.832 60.3226667,78.6853333 59.208,78.392 C58.0933333,78.0986667 57.36,77.512 57.008,76.632 C56.656,75.752 56.48,74.4613333 56.48,72.76 L56.48,72.76 L56.48,49.097 L56.9413125,49.1203125 C57.4867292,49.1523958 58.0238958,49.1908958 58.5528125,49.2358125 L59.34,49.308 C61.4226667,49.5133333 63.608,49.88 65.896,50.408 C66.072,50.4666667 66.2626667,50.2173333 66.468,49.66 C66.6733333,49.1026667 66.776,48.5306667 66.776,47.944 C66.776,47.416 66.7173333,46.932 66.6,46.492 C66.4826667,46.052 66.336,45.832 66.16,45.832 C63.7546667,46.0666667 61.4666667,46.272 59.296,46.448 C58.5724444,46.5066667 57.8456296,46.5555556 57.1155556,46.5946667 L56.48,46.625 L56.48,41.256 C56.48,33.1336 57.26078,27.269885 58.82234,23.664855 L58.944,23.392 C60.5866667,19.8133333 62.6693333,18.024 65.192,18.024 C66.6586667,18.024 67.6706667,18.4053333 68.228,19.168 C68.7853333,19.9306667 69.2693333,20.7813333 69.68,21.72 C70.0906667,22.6586667 70.604,23.524 71.22,24.316 C71.836,25.108 72.936,25.504 74.52,25.504 C75.6346667,25.504 76.6613333,25.1373333 77.6,24.404 C78.5386667,23.6706667 79.008,22.6 79.008,21.192 C79.008,19.4906667 78.0986667,18.2 76.28,17.32 C74.4613333,16.44 71.9093333,16 68.624,16 C62.6260317,16 57.9487286,17.7048587 54.5920907,21.114576 L54.436,21.276 L54.3890104,21.2541176 C53.6403506,20.9228235 52.7520277,20.5915294 51.7240415,20.2602353 L51.332,20.136 C49.0733333,19.432 46.4186667,19.08 43.368,19.08 C39.144,19.08 35.4626667,19.872 32.324,21.456 C29.1853333,23.04 26.7066667,25.592 24.888,29.112 C23.0693333,32.632 22.0133333,37.296 21.72,43.104 C21.6613333,44.5706667 21.2506667,45.5826667 20.488,46.14 C19.7253333,46.6973333 18.3173333,46.976 16.264,46.976 C16.088,46.976 16,47.24 16,47.768 C16,48.296 16.088,48.56 16.264,48.56 C17.672,48.56 18.7866667,48.6626667 19.608,48.868 C20.4293333,49.0733333 21.016,49.484 21.368,50.1 C21.72,50.716 21.896,51.6693333 21.896,52.96 L21.896,52.96 L21.896,72.76 C21.896,75.2826667 21.5733333,76.9253333 20.928,77.688 C20.2826667,78.4506667 18.8453333,78.832 16.616,78.832 C16.3813333,78.832 16.264,79.008 16.264,79.36 C16.264,79.712 16.3813333,79.888 16.616,79.888 C17.9066667,79.888 19.3586667,79.8586667 20.972,79.8 C22.5853333,79.7413333 24.2426667,79.712 25.944,79.712 C27.9973333,79.712 30.0066667,79.7413333 31.972,79.8 C33.9373333,79.8586667 35.9466667,79.888 38,79.888 C38.2346667,79.888 38.352,79.712 38.352,79.36 C38.352,79.008 38.2346667,78.832 38,78.832 C35.712,78.832 34.0106667,78.6853333 32.896,78.392 C31.7813333,78.0986667 31.048,77.512 30.696,76.632 C30.344,75.752 30.168,74.4613333 30.168,72.76 L30.168,72.76 L30.168,48.736 L36.724,48.736 C39.0937143,48.736 41.0713946,48.7612925 42.6570408,48.8118776 L43.016,48.824 C44.424,48.8826667 45.5093333,49.0293333 46.272,49.264 C47.0346667,49.4986667 47.548,49.8946667 47.812,50.452 C48.076,51.0093333 48.208,51.8453333 48.208,52.96 L48.208,52.96 L48.208,72.76 C48.208,75.2826667 47.8853333,76.9253333 47.24,77.688 C46.5946667,78.4506667 45.1573333,78.832 42.928,78.832 C42.6933333,78.832 42.576,79.008 42.576,79.36 C42.576,79.712 42.6933333,79.888 42.928,79.888 C44.2186667,79.888 45.6706667,79.8586667 47.284,79.8 C48.8973333,79.7413333 50.5546667,79.712 52.256,79.712 C54.3093333,79.712 56.3186667,79.7413333 58.284,79.8 C60.2493333,79.8586667 62.2586667,79.888 64.312,79.888 Z M30.168,41.256 C30.168,33.9813333 31.1653333,28.76 33.16,25.592 C35.1546667,22.424 37.6186667,20.84 40.552,20.84 C42.84,20.84 45.0693333,21.5733333 47.24,23.04 C48.644549,23.9890196 49.8648766,25.159105 50.9009827,26.5502561 L50.974,26.654 L50.9491462,26.7119783 C49.2630306,30.6782592 48.2975935,35.9363223 48.0528348,42.4861675 L48.032,43.104 C47.9916667,44.1123333 47.7849583,44.9057656 47.411875,45.4842969 L47.385,45.523 L47.3379688,45.5774531 C47.2650938,45.6551406 47.1871771,45.7252656 47.1042188,45.7878281 L46.976,45.876 C46.272,46.316 44.8053333,46.5653333 42.576,46.624 C40.5226667,46.6826667 38.4106667,46.712 36.24,46.712 L36.24,46.712 L30.168,46.713 L30.168,41.256 Z"
            id="ff" fill="#000000" fill-rule="nonzero"></path>
    </g>
</svg>