<?xml version="1.0" encoding="UTF-8"?>
<svg width="700px" height="128px" viewBox="0 0 700 128" version="1.1" xmlns="http://www.w3.org/2000/svg"
  xmlns:xlink="http://www.w3.org/1999/xlink">
  <g id="Artboard" stroke="none" stroke-width="1" fill="none" fill-rule="evenodd">
    <path
      d="M58,83.592 C58.2346667,83.592 58.352,83.416 58.352,83.064 C58.352,82.712 58.2346667,82.536 58,82.536 C55.712,82.536 54.0106667,82.3893333 52.896,82.096 C51.7813333,81.8026667 51.048,81.216 50.696,80.336 C50.344,79.456 50.168,78.1653333 50.168,76.464 L50.168,76.464 L50.167,52.801 L50.6293125,52.8243125 C51.1747292,52.8563958 51.7118958,52.8948958 52.2408125,52.9398125 L53.028,53.012 C55.1106667,53.2173333 57.296,53.584 59.584,54.112 C59.76,54.1706667 59.9506667,53.9213333 60.156,53.364 C60.3613333,52.8066667 60.464,52.2346667 60.464,51.648 C60.464,51.12 60.4053333,50.636 60.288,50.196 C60.1706667,49.756 60.024,49.536 59.848,49.536 C57.4426667,49.7706667 55.1546667,49.976 52.984,50.152 C52.2604444,50.2106667 51.5336296,50.2595556 50.8035556,50.2986667 L50.167,50.329 L50.168,44.96 C50.168,36.8376 50.94878,30.973885 52.51034,27.368855 L52.632,27.096 C54.2746667,23.5173333 56.3573333,21.728 58.88,21.728 C60.3466667,21.728 61.3586667,22.1093333 61.916,22.872 C62.4733333,23.6346667 62.9573333,24.4853333 63.368,25.424 C63.7786667,26.3626667 64.292,27.228 64.908,28.02 C65.524,28.812 66.624,29.208 68.208,29.208 C69.3226667,29.208 70.3493333,28.8413333 71.288,28.108 C72.2266667,27.3746667 72.696,26.304 72.696,24.896 C72.696,23.1946667 71.7866667,21.904 69.968,21.024 C68.1493333,20.144 65.5973333,19.704 62.312,19.704 C55.6826667,19.704 50.6666667,21.7866667 47.264,25.952 C43.8613333,30.1173333 42.0133333,37.0693333 41.72,46.808 C41.6613333,48.2746667 41.2506667,49.2866667 40.488,49.844 C39.7253333,50.4013333 38.3173333,50.68 36.264,50.68 C36.088,50.68 36,50.944 36,51.472 C36,52 36.088,52.264 36.264,52.264 C37.672,52.264 38.7866667,52.3666667 39.608,52.572 C40.4293333,52.7773333 41.016,53.188 41.368,53.804 C41.72,54.42 41.896,55.3733333 41.896,56.664 L41.896,56.664 L41.896,76.464 C41.896,78.9866667 41.5733333,80.6293333 40.928,81.392 C40.2826667,82.1546667 38.8453333,82.536 36.616,82.536 C36.3813333,82.536 36.264,82.712 36.264,83.064 C36.264,83.416 36.3813333,83.592 36.616,83.592 C37.9066667,83.592 39.3586667,83.5626667 40.972,83.504 C42.5853333,83.4453333 44.2426667,83.416 45.944,83.416 C47.9973333,83.416 50.0066667,83.4453333 51.972,83.504 C53.9373333,83.5626667 55.9466667,83.592 58,83.592 Z M85.28,83.592 C85.5146667,83.592 85.632,83.416 85.632,83.064 C85.632,82.712 85.5146667,82.536 85.28,82.536 C83.2853333,82.536 81.716,82.36 80.572,82.008 C79.428,81.656 78.6213333,81.0253333 78.152,80.116 C77.6826667,79.2066667 77.448,77.9893333 77.448,76.464 L77.448,76.464 L77.447,57.525 L77.4945422,57.4786844 C77.9842133,57.0030933 78.4199111,56.5955556 78.8016356,56.2560711 L78.988,56.092 C79.8973333,55.3 80.6013333,54.772 81.1,54.508 C81.5986667,54.244 82.0533333,54.112 82.464,54.112 C83.4026667,54.112 84.1213333,54.42 84.62,55.036 C85.1186667,55.652 85.676,56.2826667 86.292,56.928 C86.908,57.5733333 87.832,57.896 89.064,57.896 C90.3546667,57.896 91.3666667,57.5 92.1,56.708 C92.8333333,55.916 93.2,54.904 93.2,53.672 C93.2,52.2053333 92.54,51.0173333 91.22,50.108 C89.9,49.1986667 88.624,48.744 87.392,48.744 C86.512,48.744 85.5146667,49.0226667 84.4,49.58 C83.2853333,50.1373333 81.936,51.12 80.352,52.528 C79.56,53.232 78.68,54.09 77.712,55.102 L77.408,55.423 L77.3944083,55.166782 C77.2872249,53.5078754 77.0192664,52.1559031 76.5905329,51.1108651 L76.48,50.856 C75.8346667,49.448 75.1893333,48.744 74.544,48.744 C74.4853333,48.744 74.28,48.8026667 73.928,48.92 L73.928,48.92 L61.696,54.904 C61.5786667,54.9626667 61.5786667,55.168 61.696,55.52 C61.8133333,55.872 61.9893333,55.9893333 62.224,55.872 C63.104,55.4613333 63.896,55.1533333 64.6,54.948 C65.304,54.7426667 65.92,54.64 66.448,54.64 C67.4453333,54.64 68.1493333,55.0653333 68.56,55.916 C68.9706667,56.7666667 69.176,58.1013333 69.176,59.92 L69.176,59.92 L69.176,76.464 C69.176,78.8106667 68.8533333,80.4093333 68.208,81.26 C67.5626667,82.1106667 66.3306667,82.536 64.512,82.536 C64.336,82.536 64.248,82.712 64.248,83.064 C64.248,83.416 64.336,83.592 64.512,83.592 C65.6853333,83.592 67.0346667,83.5626667 68.56,83.504 C70.0853333,83.4453333 71.6693333,83.416 73.312,83.416 C75.6586667,83.416 77.844,83.4453333 79.868,83.504 C81.892,83.5626667 83.696,83.592 85.28,83.592 Z M120.568,84.296 C120.92,84.296 121.213333,84.2373333 121.448,84.12 L121.448,84.12 L130.512,79.808 C130.805333,79.6906667 130.878667,79.4706667 130.732,79.148 C130.585333,78.8253333 130.394667,78.7226667 130.16,78.84 C129.28,79.2506667 128.429333,79.456 127.608,79.456 C126.493333,79.456 125.628,78.9866667 125.012,78.048 C124.396,77.1093333 124.088,75.7893333 124.088,74.088 L124.088,74.088 L124.088,58.512 C124.088,55.0506667 123.237333,52.5573333 121.536,51.032 C119.834667,49.5066667 117.781333,48.744 115.376,48.744 C113.792,48.744 111.958667,49.0226667 109.876,49.58 C107.793333,50.1373333 105.784,50.9 103.848,51.868 C101.912,52.836 100.313333,53.9506667 99.052,55.212 C97.7906667,56.4733333 97.16,57.808 97.16,59.216 C97.16,60.1546667 97.4826667,60.9466667 98.128,61.592 C98.7733333,62.2373333 99.8586667,62.56 101.384,62.56 C102.850667,62.56 104.024,62.1933333 104.904,61.46 C105.784,60.7266667 106.312,59.4506667 106.488,57.632 C106.546667,56.8693333 106.708,55.9306667 106.972,54.816 C107.236,53.7013333 107.734667,52.6893333 108.468,51.78 C109.201333,50.8706667 110.301333,50.416 111.768,50.416 C113.293333,50.416 114.349333,51.2813333 114.936,53.012 C115.522667,54.7426667 115.816,57.456 115.816,61.152 L115.816,61.152 L115.815,66.143 L107.896,69.072 C106.441067,69.5882667 105.02368,70.0951467 103.64384,70.59264 L102.616,70.964 C100.914667,71.58 99.536,72.4013333 98.48,73.428 C97.424,74.4546667 96.896,75.936 96.896,77.872 C96.896,79.808 97.5266667,81.348 98.788,82.492 C100.049333,83.636 101.970667,84.208 104.552,84.208 C106.077333,84.208 107.426667,83.988 108.6,83.548 C109.773333,83.108 111.005333,82.3893333 112.296,81.392 L112.296,81.392 L116.023,78.729 L116.031003,78.7790582 C116.256244,80.0446981 116.65846,81.103867 117.237651,81.9565651 L117.4,82.184 C118.456,83.592 119.512,84.296 120.568,84.296 Z M111.064,79.544 C110.066667,79.544 109.069333,79.1773333 108.072,78.444 C107.074667,77.7106667 106.576,76.5813333 106.576,75.056 C106.576,73.7066667 106.928,72.6653333 107.632,71.932 C108.336,71.1986667 109.128,70.6413333 110.008,70.26 C110.888,69.8786667 111.562667,69.6 112.032,69.424 L112.032,69.424 L115.815,67.698 L115.816,76.112 C115.816,76.3898947 115.82185,76.660964 115.833551,76.9252078 L115.854,77.293 L113.968,78.576 C113.454667,78.9353333 112.997479,79.182375 112.596437,79.317125 L112.428,79.368 C111.988,79.4853333 111.533333,79.544 111.064,79.544 Z M146.44,108.408 C149.432,108.408 152.277333,107.894667 154.976,106.868 C157.674667,105.841333 160.050667,104.448 162.104,102.688 C164.157333,100.928 165.770667,98.9186667 166.944,96.66 C168.117333,94.4013333 168.704,92.0106667 168.704,89.488 C168.704,87.2 168.234667,85.4106667 167.296,84.12 C166.357333,82.8293333 165.096,81.8906667 163.512,81.304 C161.928,80.7173333 160.182667,80.3506667 158.276,80.204 C156.369333,80.0573333 154.418667,79.984 152.424,79.984 C150.253333,79.9253333 148.346667,79.8226667 146.704,79.676 C145.061333,79.5293333 143.785333,79.104 142.876,78.4 C141.966667,77.696 141.512,76.5226667 141.512,74.88 C141.512,73.648 141.805333,72.6066667 142.392,71.756 C142.498667,71.6013333 142.61503,71.4490909 142.741091,71.2992727 L142.889,71.132 L142.948623,71.1511142 C144.314805,71.5977116 145.812937,71.8413103 147.443017,71.88191 L147.936,71.888 C150.4,71.888 152.82,71.404 155.196,70.436 C157.572,69.468 159.537333,68.104 161.092,66.344 C162.646667,64.584 163.424,62.472 163.424,60.008 C163.424,57.896 162.822667,56.0186667 161.62,54.376 C161.459644,54.1569778 161.291727,53.9439526 161.116249,53.7369244 L161.073,53.688 L161.22675,53.68025 L161.22675,53.68025 L161.752,53.672 C162.808,53.672 163.893333,53.804 165.008,54.068 C166.122667,54.332 167.208,54.6986667 168.264,55.168 C168.498667,55.344 168.733333,54.9333333 168.968,53.936 C169.202667,52.9386667 169.32,52.0293333 169.32,51.208 C169.32,50.504 169.276,49.9173333 169.188,49.448 C169.1,48.9786667 168.909333,48.744 168.616,48.744 C166.445333,48.744 164.465333,49.1253333 162.676,49.888 C161.632222,50.3328889 160.573472,50.8975556 159.49975,51.582 L159.086,51.852 L158.99584,51.78352 C158.424818,51.3708978 157.806536,50.995757 157.140996,50.6580978 L156.736,50.46 C154.682667,49.492 152.306667,49.008 149.608,49.008 C147.261333,49.008 144.9,49.404 142.524,50.196 C140.148,50.988 138.168,52.2053333 136.584,53.848 C135,55.4906667 134.208,57.544 134.208,60.008 C134.208,61.944 134.765333,63.8213333 135.88,65.64 C136.994667,67.4586667 138.578667,68.9546667 140.632,70.128 C140.752784,70.1970196 140.874888,70.2640092 140.998311,70.3289689 L141.341,70.502 L140.996172,70.7286349 C139.56263,71.6896508 138.411646,72.7177143 137.54322,73.8128254 L137.332,74.088 C135.894667,76.024 135.176,78.0186667 135.176,80.072 C135.176,82.1253333 135.836,83.636 137.156,84.604 C138.3,85.4429333 139.697375,86.0284919 141.348124,86.3606756 L141.577,86.404 L141.417714,86.5085714 C138.357619,88.5325714 136.198083,90.4180238 134.939107,92.1649286 L134.78,92.392 C133.342667,94.504 132.624,96.4986667 132.624,98.376 C132.624,101.368 133.914667,103.788 136.496,105.636 C139.077333,107.484 142.392,108.408 146.44,108.408 Z M150.224,70.304 C148.992,70.304 147.804,69.7466667 146.66,68.632 C145.516,67.5173333 144.577333,65.992 143.844,64.056 C143.110667,62.12 142.744,59.8906667 142.744,57.368 C142.744,55.256 143.052,53.6133333 143.668,52.44 C144.284,51.2666667 145.296,50.68 146.704,50.68 C147.877333,50.68 149.094667,51.1053333 150.356,51.956 C151.617333,52.8066667 152.673333,54.0973333 153.524,55.828 C154.374667,57.5586667 154.8,59.7733333 154.8,62.472 C154.8,65.3466667 154.330667,67.3706667 153.392,68.544 C152.453333,69.7173333 151.397333,70.304 150.224,70.304 Z M151.72,105.592 C149.842667,105.592 148.053333,105.152 146.352,104.272 C144.650667,103.392 143.257333,102.086667 142.172,100.356 C141.086667,98.6253333 140.544,96.44 140.544,93.8 C140.544,92.568 140.676,91.4826667 140.94,90.544 C141.204,89.6053333 141.6,88.7986667 142.128,88.124 C142.505143,87.6420952 142.927184,87.2125714 143.394122,86.8354286 L143.585,86.688 L143.837714,86.7186939 C144.977524,86.848 146.117333,86.9389932 147.257143,86.9916735 L148.112,87.024 C150.752,87.024 153.069333,87.156 155.064,87.42 C157.058667,87.684 158.628,88.3733333 159.772,89.488 C160.916,90.6026667 161.488,92.48 161.488,95.12 C161.488,98.3466667 160.593333,100.898667 158.804,102.776 C157.014667,104.653333 154.653333,105.592 151.72,105.592 Z M236.904,83.592 C237.138667,83.592 237.256,83.416 237.256,83.064 C237.256,82.712 237.138667,82.536 236.904,82.536 C235.085333,82.536 233.838667,82.1106667 233.164,81.26 C232.489333,80.4093333 232.152,78.8106667 232.152,76.464 L232.152,76.464 L232.152,59.568 C232.152,55.8133333 231.301333,53.0413333 229.6,51.252 C227.898667,49.4626667 225.493333,48.568 222.384,48.568 C219.450667,48.568 216.737333,49.4626667 214.244,51.252 C212.374,52.594 210.64425,54.25775 209.05475,56.24325 L208.95,56.377 C208.655346,54.2815536 207.920038,52.5985408 206.744077,51.3279616 L206.544,51.12 C204.842667,49.4186667 202.437333,48.568 199.328,48.568 C196.394667,48.568 193.681333,49.4626667 191.188,51.252 C189.629667,52.3703333 188.168729,53.7121042 186.805187,55.2773125 L186.453,55.691 L186.449855,55.5879031 C186.362768,53.7353356 186.086994,52.2429896 185.622533,51.1108651 L185.512,50.856 C184.866667,49.448 184.221333,48.744 183.576,48.744 C183.517333,48.744 183.312,48.8026667 182.96,48.92 L182.96,48.92 L170.728,54.904 C170.610667,54.9626667 170.610667,55.168 170.728,55.52 C170.845333,55.872 171.021333,55.9893333 171.256,55.872 C172.136,55.4613333 172.928,55.1533333 173.632,54.948 C174.336,54.7426667 174.952,54.64 175.48,54.64 C176.477333,54.64 177.181333,55.0653333 177.592,55.916 C178.002667,56.7666667 178.208,58.1013333 178.208,59.92 L178.208,59.92 L178.208,76.464 C178.208,78.8106667 177.885333,80.4093333 177.24,81.26 C176.594667,82.1106667 175.362667,82.536 173.544,82.536 C173.368,82.536 173.28,82.712 173.28,83.064 C173.28,83.416 173.368,83.592 173.544,83.592 C174.717333,83.592 176.066667,83.5626667 177.592,83.504 C179.117333,83.4453333 180.701333,83.416 182.344,83.416 C184.045333,83.416 185.658667,83.4453333 187.184,83.504 C188.709333,83.5626667 190.058667,83.592 191.232,83.592 C191.408,83.592 191.496,83.416 191.496,83.064 C191.496,82.712 191.408,82.536 191.232,82.536 C189.413333,82.536 188.166667,82.1106667 187.492,81.26 C186.817333,80.4093333 186.48,78.8106667 186.48,76.464 L186.48,76.464 L186.479,57.565 L186.722,57.346 C187.312857,56.8305714 187.96298,56.3744082 188.672367,55.9775102 L189.032,55.784 C190.733333,54.904 192.493333,54.464 194.312,54.464 C198.712,54.464 200.912,57.5733333 200.912,63.792 L200.912,63.792 L200.912,76.464 C200.912,78.8106667 200.574667,80.4093333 199.9,81.26 C199.225333,82.1106667 197.978667,82.536 196.16,82.536 C195.984,82.536 195.896,82.712 195.896,83.064 C195.896,83.416 195.984,83.592 196.16,83.592 C197.333333,83.592 198.682667,83.5626667 200.208,83.504 C201.733333,83.4453333 203.317333,83.416 204.96,83.416 C206.661333,83.416 208.274667,83.4453333 209.8,83.504 C211.325333,83.5626667 212.674667,83.592 213.848,83.592 C214.082667,83.592 214.2,83.416 214.2,83.064 C214.2,82.712 214.082667,82.536 213.848,82.536 C212.029333,82.536 210.782667,82.1106667 210.108,81.26 C209.433333,80.4093333 209.096,78.8106667 209.096,76.464 L209.096,76.464 L209.096,58.6 C209.096,58.4685867 209.094639,58.3384405 209.091917,58.2095616 L209.085,58.009 L209.206898,57.8811837 C209.942027,57.1412653 210.782517,56.5067075 211.728367,55.9775102 L212.088,55.784 C213.789333,54.904 215.549333,54.464 217.368,54.464 C221.768,54.464 223.968,57.5733333 223.968,63.792 L223.968,63.792 L223.968,76.464 C223.968,78.8106667 223.630667,80.4093333 222.956,81.26 C222.281333,82.1106667 221.034667,82.536 219.216,82.536 C219.04,82.536 218.952,82.712 218.952,83.064 C218.952,83.416 219.04,83.592 219.216,83.592 C220.389333,83.592 221.738667,83.5626667 223.264,83.504 C224.789333,83.4453333 226.373333,83.416 228.016,83.416 C229.717333,83.416 231.330667,83.4453333 232.856,83.504 C234.381333,83.5626667 235.730667,83.592 236.904,83.592 Z M259.168,84.648 C261.749333,84.648 264.169333,84.1933333 266.428,83.284 C268.686667,82.3746667 270.901333,80.8346667 273.072,78.664 C273.189333,78.488 273.145333,78.2826667 272.94,78.048 C272.734667,77.8133333 272.573333,77.7546667 272.456,77.872 C270.989333,78.6346667 269.654667,79.236 268.452,79.676 C267.249333,80.116 265.768,80.336 264.008,80.336 C261.016,80.336 258.493333,79.6613333 256.44,78.312 C254.386667,76.9626667 252.832,75.056 251.776,72.592 C250.72,70.128 250.192,67.1946667 250.192,63.792 C250.192,63.0982029 250.212849,62.4283604 250.254548,61.7824726 L250.256,61.754 L266.295,61.68 L271.664,61.68 C272.037333,61.68 272.289455,61.4618182 272.420364,61.0254545 L272.456,60.888 C272.573333,60.36 272.632,59.7146667 272.632,58.952 C272.632,55.3733333 271.590667,52.792 269.508,51.208 C267.425333,49.624 264.653333,48.832 261.192,48.832 C257.32,48.832 253.888,49.6826667 250.896,51.384 C247.904,53.0853333 245.557333,55.344 243.856,58.16 C242.154667,60.976 241.304,64.1146667 241.304,67.576 C241.304,70.568 241.993333,73.3693333 243.372,75.98 C244.750667,78.5906667 246.774667,80.688 249.444,82.272 C252.113333,83.856 255.354667,84.648 259.168,84.648 Z M250.427,60.035 L250.442193,59.916673 C250.754934,57.6742533 251.36087,55.7686957 252.26,54.2 C253.638667,51.7946667 255.501333,50.592 257.848,50.592 C260.018667,50.592 261.485333,51.604 262.248,53.628 C262.850105,55.2258947 263.177972,57.2351468 263.231601,59.6557562 L263.233,59.8 L250.427,60.035 Z M320.064,83.592 C320.24,83.592 320.328,83.416 320.328,83.064 C320.328,82.712 320.24,82.536 320.064,82.536 C318.245333,82.536 316.998667,82.1106667 316.324,81.26 C315.649333,80.4093333 315.312,78.8106667 315.312,76.464 L315.312,76.464 L315.312,59.568 C315.312,56.3413333 314.417333,53.7013333 312.628,51.648 C310.838667,49.5946667 308.301333,48.568 305.016,48.568 C301.965333,48.568 299.149333,49.4626667 296.568,51.252 C294.897725,52.4098039 293.337984,53.8070957 291.888775,55.4438754 L291.616,55.759 L291.609855,55.5879031 C291.522768,53.7353356 291.246994,52.2429896 290.782533,51.1108651 L290.672,50.856 C290.026667,49.448 289.381333,48.744 288.736,48.744 C288.677333,48.744 288.472,48.8026667 288.12,48.92 L288.12,48.92 L275.888,54.904 C275.770667,54.9626667 275.770667,55.168 275.888,55.52 C276.005333,55.872 276.181333,55.9893333 276.416,55.872 C277.296,55.4613333 278.088,55.1533333 278.792,54.948 C279.496,54.7426667 280.112,54.64 280.64,54.64 C281.637333,54.64 282.341333,55.0653333 282.752,55.916 C283.162667,56.7666667 283.368,58.1013333 283.368,59.92 L283.368,59.92 L283.368,76.464 C283.368,78.8106667 283.045333,80.4093333 282.4,81.26 C281.754667,82.1106667 280.522667,82.536 278.704,82.536 C278.528,82.536 278.44,82.712 278.44,83.064 C278.44,83.416 278.528,83.592 278.704,83.592 C279.877333,83.592 281.226667,83.5626667 282.752,83.504 C284.277333,83.4453333 285.861333,83.416 287.504,83.416 C289.205333,83.416 290.818667,83.4453333 292.344,83.504 C293.869333,83.5626667 295.218667,83.592 296.392,83.592 C296.568,83.592 296.656,83.416 296.656,83.064 C296.656,82.712 296.568,82.536 296.392,82.536 C294.573333,82.536 293.326667,82.1106667 292.652,81.26 C291.977333,80.4093333 291.64,78.8106667 291.64,76.464 L291.64,76.464 L291.639,57.656 L291.856089,57.4673422 C292.53597,56.8960593 293.295704,56.3950459 294.135289,55.9643022 L294.5,55.784 C296.348,54.904 298.152,54.464 299.912,54.464 C302.376,54.464 304.18,55.2266667 305.324,56.752 C306.468,58.2773333 307.04,60.624 307.04,63.792 L307.04,63.792 L307.04,76.464 C307.04,78.8106667 306.717333,80.4093333 306.072,81.26 C305.426667,82.1106667 304.194667,82.536 302.376,82.536 C302.2,82.536 302.112,82.712 302.112,83.064 C302.112,83.416 302.2,83.592 302.376,83.592 C303.549333,83.592 304.898667,83.5626667 306.424,83.504 C307.949333,83.4453333 309.533333,83.416 311.176,83.416 C312.877333,83.416 314.490667,83.4453333 316.016,83.504 C317.541333,83.5626667 318.890667,83.592 320.064,83.592 Z M337.752,84.648 C340.098667,84.648 342.284,84.1346667 344.308,83.108 C346.332,82.0813333 348.429333,80.4826667 350.6,78.312 C350.834667,78.136 350.82,77.916 350.556,77.652 C350.292,77.388 350.072,77.344 349.896,77.52 C349.074667,78.1653333 348.062667,78.7666667 346.86,79.324 C345.657333,79.8813333 344.381333,80.16 343.032,80.16 C341.272,80.16 339.790667,79.6613333 338.588,78.664 C337.385333,77.6666667 336.784,75.9946667 336.784,73.648 L336.784,73.648 L336.783,52.759 L337.389,52.781 C338.2855,52.8195 339.163438,52.8724375 340.022813,52.9398125 L340.876,53.012 C343.134667,53.2173333 345.466667,53.584 347.872,54.112 C348.106667,54.1706667 348.326667,53.9213333 348.532,53.364 C348.737333,52.8066667 348.84,52.2346667 348.84,51.648 C348.84,51.12 348.766667,50.636 348.62,50.196 C348.473333,49.756 348.341333,49.536 348.224,49.536 C345.584,49.7706667 343.105333,49.976 340.788,50.152 C339.629333,50.24 338.459667,50.306 337.279,50.35 L336.783,50.365 L336.784,43.288 C336.784,43.0794074 336.63335,42.9635226 336.332049,42.9403457 L336.212,42.936 C335.830667,42.936 335.581333,43.0533333 335.464,43.288 C334.525333,45.6346667 333.117333,47.4093333 331.24,48.612 C329.362667,49.8146667 326.928,50.4746667 323.936,50.592 C323.701333,50.592 323.584,50.856 323.584,51.384 C323.584,51.912 323.701333,52.176 323.936,52.176 C325.050667,52.176 325.930667,52.3226667 326.576,52.616 C327.221333,52.9093333 327.690667,53.408 327.984,54.112 C328.277333,54.816 328.424,55.784 328.424,57.016 L328.424,57.016 L328.424,76.552 C328.424,78.664 328.908,80.3066667 329.876,81.48 C330.844,82.6533333 332.046667,83.4746667 333.484,83.944 C334.921333,84.4133333 336.344,84.648 337.752,84.648 Z M364.68,84.56 C367.613333,84.56 370.048,84.0026667 371.984,82.888 C373.92,81.7733333 375.372,80.3213333 376.34,78.532 C377.308,76.7426667 377.792,74.9093333 377.792,73.032 C377.792,70.9786667 377.322667,69.3066667 376.384,68.016 C375.445333,66.7253333 374.272,65.6253333 372.864,64.716 C371.456,63.8066667 370.018667,62.9413333 368.552,62.12 C367.32,61.3573333 366.176,60.58 365.12,59.788 C364.064,58.996 363.198667,58.116 362.524,57.148 C361.849333,56.18 361.512,55.08 361.512,53.848 C361.512,52.3813333 361.908,51.4426667 362.7,51.032 C363.492,50.6213333 364.298667,50.416 365.12,50.416 C366.821333,50.416 368.405333,50.9 369.872,51.868 C371.338667,52.836 372.526667,53.9653333 373.436,55.256 C374.345333,56.5466667 374.8,57.7493333 374.8,58.864 C374.8,59.04 374.976,59.128 375.328,59.128 C375.68,59.128 375.856,59.04 375.856,58.864 C375.856,57.3386667 375.885333,55.9453333 375.944,54.684 C376.002667,53.4226667 376.032,52.2053333 376.032,51.032 C376.032,50.5626667 375.768,50.24 375.24,50.064 C373.832,49.536 372.585333,49.184 371.5,49.008 C370.414667,48.832 369.226667,48.744 367.936,48.744 C365.824,48.744 363.785333,49.0666667 361.82,49.712 C359.854667,50.3573333 358.256,51.4133333 357.024,52.88 C355.792,54.3466667 355.176,56.312 355.176,58.776 C355.176,60.8293333 355.616,62.4866667 356.496,63.748 C357.376,65.0093333 358.490667,66.0506667 359.84,66.872 C361.189333,67.6933333 362.538667,68.4853333 363.888,69.248 C365.061333,69.8933333 366.205333,70.612 367.32,71.404 C368.434667,72.196 369.358667,73.1346667 370.092,74.22 C370.825333,75.3053333 371.192,76.6693333 371.192,78.312 C371.192,79.8373333 370.810667,80.9666667 370.048,81.7 C369.285333,82.4333333 368.317333,82.8 367.144,82.8 C365.618667,82.8 364.108,82.316 362.612,81.348 C361.116,80.38 359.781333,79.0893333 358.608,77.476 C357.434667,75.8626667 356.525333,74.1173333 355.88,72.24 C355.821333,72.1226667 355.630667,72.0786667 355.308,72.108 C354.985333,72.1373333 354.824,72.24 354.824,72.416 L354.824,72.416 L355,81.128 C355,81.3626667 355.058667,81.568 355.176,81.744 C355.293333,81.92 355.410667,82.0666667 355.528,82.184 C357.229333,83.1226667 358.813333,83.7533333 360.28,84.076 C361.746667,84.3986667 363.213333,84.56 364.68,84.56 Z M425.488,84.648 C429.477333,84.648 432.909333,84.1053333 435.784,83.02 C438.299333,82.0703333 440.466563,80.8399375 442.285687,79.3288125 L442.344,79.279 L442.398626,79.3177839 C442.835457,79.6311062 443.248236,79.9203767 443.636964,80.1855956 L443.924,80.38 C445.713333,81.5826667 447.136,82.4186667 448.192,82.888 C449.248,83.3573333 450.098667,83.592 450.744,83.592 L450.744,83.592 L465.176,83.592 C465.352,83.592 465.454667,83.4306667 465.484,83.108 C465.513333,82.7853333 465.410667,82.5946667 465.176,82.536 C463.709333,82.1253333 461.48,81.1133333 458.488,79.5 C455.496,77.8866667 451.917333,75.5253333 447.752,72.416 L447.968,72.577 L448.29521,72.0102222 C449.233152,70.3447407 450.020263,68.6792593 450.656543,67.0137778 L450.92,66.3 C451.682667,64.1586667 452.298667,62.2373333 452.768,60.536 C453.237333,58.8346667 453.692,57.5 454.132,56.532 C454.572,55.564 455.232,54.8746667 456.112,54.464 C456.992,54.0533333 458.312,53.848 460.072,53.848 C460.248,53.848 460.336,53.672 460.336,53.32 C460.336,52.968 460.248,52.792 460.072,52.792 L460.072,52.792 L439.128,52.88 C438.952,52.88 438.878667,53.056 438.908,53.408 C438.937333,53.76 439.010667,53.936 439.128,53.936 C441.709333,53.936 443.542667,54.728 444.628,56.312 C445.713333,57.896 446.256,60.36 446.256,63.704 C446.256,66.344 445.977333,68.7053333 445.42,70.788 L445.461,70.623 L444.91268,70.17992 C443.02772,68.64168 441.1586,67.0084 439.30532,65.28008 L438.38,64.408 C435.3,61.4746667 432.513333,58.3946667 430.02,55.168 C429.355111,54.3075556 428.725683,53.4429393 428.131716,52.5741511 L427.837,52.138 L428.147755,51.9263673 L428.147755,51.9263673 L429.096,51.296 C431.325333,49.8293333 433.437333,48.3333333 435.432,46.808 C437.426667,45.2826667 439.054667,43.6106667 440.316,41.792 C441.577333,39.9733333 442.208,37.8906667 442.208,35.544 C442.208,33.6666667 441.724,32.0826667 440.756,30.792 C439.788,29.5013333 438.424,28.504 436.664,27.8 C434.904,27.096 432.821333,26.744 430.416,26.744 C426.896,26.744 423.874667,27.448 421.352,28.856 C418.829333,30.264 416.893333,32.2 415.544,34.664 C414.194667,37.128 413.52,39.9146667 413.52,43.024 C413.52,44.9013333 413.754667,46.588 414.224,48.084 C414.693333,49.58 415.309333,51.0613333 416.072,52.528 C416.776,53.8186667 417.593667,55.1276667 418.525,56.455 L418.779,56.813 L418.13102,57.2988571 C416.91219,58.2207619 415.731673,59.1426667 414.589469,60.0645714 L413.74,60.756 C411.774667,62.3693333 410.176,64.0853333 408.944,65.904 C407.712,67.7226667 407.096,69.776 407.096,72.064 C407.096,74.1173333 407.741333,76.112 409.032,78.048 C410.322667,79.984 412.332,81.568 415.06,82.8 C417.788,84.032 421.264,84.648 425.488,84.648 Z M426.689,50.34 L426.456196,49.9552711 C425.540865,48.4202904 424.734133,46.8725333 424.036,45.312 C422.54,41.968 421.792,38.6826667 421.792,35.456 C421.792,33.4026667 422.144,31.8333333 422.848,30.748 C423.552,29.6626667 424.725333,29.12 426.368,29.12 C428.245333,29.12 429.8,29.8386667 431.032,31.276 C432.264,32.7133333 432.88,34.752 432.88,37.392 C432.88,40.1493333 432.264,42.6133333 431.032,44.784 C429.989538,46.6207179 428.684552,48.3314241 427.117041,49.9161183 L426.689,50.34 Z M432.264,80.336 C428.861333,80.336 425.942667,79.6906667 423.508,78.4 C421.073333,77.1093333 419.210667,75.452 417.92,73.428 C416.629333,71.404 415.984,69.2773333 415.984,67.048 C415.984,64.7013333 416.614667,62.6186667 417.876,60.8 C418.458154,59.9606154 419.118414,59.1524734 419.856781,58.375574 L419.904,58.326 L420.232918,58.7483878 C420.536129,59.1336122 420.848619,59.5203333 421.170388,59.908551 L421.66,60.492 C423.977333,63.22 426.485333,65.8453333 429.184,68.368 C431.882667,70.8906667 434.464,73.1493333 436.928,75.144 C438.289684,76.2277895 439.529607,77.1898172 440.647767,78.0300831 L440.679,78.055 L440.605143,78.1072653 C440.070857,78.4724354 439.497286,78.7945782 438.884429,79.0736939 L438.512,79.236 C436.752,79.9693333 434.669333,80.336 432.264,80.336 Z M532.76,83.592 C532.936,83.592 533.024,83.416 533.024,83.064 C533.024,82.712 532.936,82.536 532.76,82.536 C530.941333,82.536 529.694667,82.1106667 529.02,81.26 C528.345333,80.4093333 528.008,78.8106667 528.008,76.464 L528.008,76.464 L528.008,19.264 C528.008,19.088 527.832,19 527.48,19 C527.128,19 526.952,19.088 526.952,19.264 C526.952,20.2026667 526.673333,21.2 526.116,22.256 C525.964,22.544 525.792364,22.82 525.601091,23.084 L525.437,23.3 L525.209959,23.1342041 C524.218612,22.4337959 523.045429,21.794 521.690408,21.2148163 L521.232,21.024 C519.061333,20.144 516.333333,19.704 513.048,19.704 C506.36,19.704 501.329333,21.7866667 497.956,25.952 C494.582667,30.1173333 492.749333,37.0693333 492.456,46.808 C492.397333,48.2746667 491.986667,49.2866667 491.224,49.844 C490.461333,50.4013333 489.053333,50.68 487,50.68 C486.824,50.68 486.736,50.944 486.736,51.472 C486.736,52 486.824,52.264 487,52.264 C488.408,52.264 489.522667,52.3666667 490.344,52.572 C491.165333,52.7773333 491.752,53.188 492.104,53.804 C492.456,54.42 492.632,55.3733333 492.632,56.664 L492.632,56.664 L492.632,76.464 C492.632,78.9866667 492.309333,80.6293333 491.664,81.392 C491.018667,82.1546667 489.581333,82.536 487.352,82.536 C487.117333,82.536 487,82.712 487,83.064 C487,83.416 487.117333,83.592 487.352,83.592 C488.642667,83.592 490.094667,83.5626667 491.708,83.504 C493.321333,83.4453333 494.978667,83.416 496.68,83.416 C498.733333,83.416 500.742667,83.4453333 502.708,83.504 C504.673333,83.5626667 506.682667,83.592 508.736,83.592 C508.970667,83.592 509.088,83.416 509.088,83.064 C509.088,82.712 508.970667,82.536 508.736,82.536 C506.448,82.536 504.746667,82.3893333 503.632,82.096 C502.517333,81.8026667 501.784,81.216 501.432,80.336 C501.08,79.456 500.904,78.1653333 500.904,76.464 L500.904,76.464 L500.903,52.801 L501.365312,52.8243125 C501.910729,52.8563958 502.447896,52.8948958 502.976812,52.9398125 L503.764,53.012 C505.846667,53.2173333 508.032,53.584 510.32,54.112 C510.496,54.1706667 510.686667,53.9213333 510.892,53.364 C511.097333,52.8066667 511.2,52.2346667 511.2,51.648 C511.2,51.12 511.141333,50.636 511.024,50.196 C510.906667,49.756 510.76,49.536 510.584,49.536 C508.178667,49.7706667 505.890667,49.976 503.72,50.152 C502.996444,50.2106667 502.26963,50.2595556 501.539556,50.2986667 L500.903,50.329 L500.904,44.96 C500.904,39.49696 501.28247,35.0611968 502.039411,31.6527104 L502.136,31.232 C502.957333,27.7706667 504.101333,25.248 505.568,23.664 C507.034667,22.08 508.706667,21.288 510.584,21.288 C512.52,21.288 514.382667,22.0946667 516.172,23.708 C517.514,24.918 518.68275,26.40025 519.67825,28.15475 L519.735,28.259 L519.736,76.464 C519.736,78.6933333 519.431557,80.2475967 518.82267,81.12679 L518.724,81.26 C518.049333,82.1106667 516.832,82.536 515.072,82.536 C514.896,82.536 514.808,82.712 514.808,83.064 C514.808,83.416 514.896,83.592 515.072,83.592 C516.245333,83.592 517.58,83.5626667 519.076,83.504 C520.572,83.4453333 522.141333,83.416 523.784,83.416 C525.544,83.416 527.186667,83.4453333 528.712,83.504 C530.237333,83.5626667 531.586667,83.592 532.76,83.592 Z M555.728,84.736 C559.189333,84.736 562.386667,83.988 565.32,82.492 C568.253333,80.996 570.614667,78.884 572.404,76.156 C574.193333,73.428 575.088,70.2746667 575.088,66.696 C575.088,63.5866667 574.384,60.6533333 572.976,57.896 C571.568,55.1386667 569.529333,52.88 566.86,51.12 C564.190667,49.36 560.978667,48.48 557.224,48.48 C554.994667,48.48 552.736,48.832 550.448,49.536 C548.16,50.24 546.048,51.3106667 544.112,52.748 C542.176,54.1853333 540.621333,56.0186667 539.448,58.248 C538.274667,60.4773333 537.688,63.1173333 537.688,66.168 C537.688,69.4533333 538.421333,72.5186667 539.888,75.364 C541.354667,78.2093333 543.437333,80.4826667 546.136,82.184 C548.834667,83.8853333 552.032,84.736 555.728,84.736 Z M558.368,82.888 C556.314667,82.888 554.437333,82.0666667 552.736,80.424 C551.034667,78.7813333 549.685333,76.4493333 548.688,73.428 C547.690667,70.4066667 547.192,66.9013333 547.192,62.912 C547.192,58.6293333 547.793333,55.4613333 548.996,53.408 C550.198667,51.3546667 551.944,50.328 554.232,50.328 C556.109333,50.328 557.898667,51.0613333 559.6,52.528 C561.301333,53.9946667 562.694667,56.1653333 563.78,59.04 C564.865333,61.9146667 565.408,65.4933333 565.408,69.776 C565.408,73.9413333 564.821333,77.168 563.648,79.456 C562.474667,81.744 560.714667,82.888 558.368,82.888 Z M619.484,83.856 C620.041333,83.856 620.349333,83.7386667 620.408,83.504 L620.408,83.504 L631.232,58.6 C632.405333,55.8426667 633.652,53.8333333 634.972,52.572 C636.292,51.3106667 637.773333,50.68 639.416,50.68 C639.592,50.68 639.68,50.504 639.68,50.152 C639.68,49.8 639.592,49.624 639.416,49.624 C638.125333,49.624 637.04,49.6533333 636.16,49.712 C635.28,49.7706667 634.106667,49.8 632.64,49.8 L632.148972,49.7993889 C630.376546,49.7949074 628.912222,49.7657778 627.756,49.712 C626.494667,49.6533333 625.189333,49.624 623.84,49.624 C623.664,49.624 623.576,49.8 623.576,50.152 C623.576,50.504 623.664,50.68 623.84,50.68 C626.128,50.68 627.770667,51.384 628.768,52.792 C629.765333,54.2 629.765333,56.1066667 628.768,58.512 L628.768,58.512 L622.928,72.604 L613.104,54.112 C612.549926,53.0592593 612.597638,52.242 613.247136,51.6602222 L613.368,51.56 C614.130667,50.9733333 615.245333,50.68 616.712,50.68 C616.829333,50.68 616.888,50.504 616.888,50.152 C616.888,49.8 616.829333,49.624 616.712,49.624 C615.421333,49.624 613.998667,49.6533333 612.444,49.712 C610.889333,49.7706667 609.026667,49.8 606.856,49.8 L606.416521,49.7994793 C604.687763,49.7953136 603.308923,49.7661538 602.28,49.712 C601.165333,49.6533333 600.168,49.624 599.288,49.624 C599.170667,49.624 599.112,49.8 599.112,50.152 C599.112,50.504 599.170667,50.68 599.288,50.68 C600.402667,50.68 601.312,51.0906667 602.016,51.912 C602.72,52.7333333 603.717333,54.4053333 605.008,56.928 L605.008,56.928 L606.53,59.933 L601.305,72.541 L591.104,54.112 C590.376,52.824 590.436455,51.9369091 591.285364,51.4507273 L591.412,51.384 C592.38,50.9146667 593.597333,50.68 595.064,50.68 C595.24,50.68 595.328,50.504 595.328,50.152 C595.328,49.8 595.24,49.624 595.064,49.624 C593.773333,49.624 592.350667,49.6533333 590.796,49.712 C589.241333,49.7706667 587.378667,49.8 585.208,49.8 L584.749816,49.799551 C582.79451,49.7956599 581.231238,49.7664762 580.06,49.712 C578.798667,49.6533333 577.669333,49.624 576.672,49.624 C576.496,49.624 576.408,49.8 576.408,50.152 C576.408,50.504 576.496,50.68 576.672,50.68 C577.962667,50.68 579.077333,51.0613333 580.016,51.824 C580.954667,52.5866667 582.069333,54.288 583.36,56.928 L583.36,56.928 L596.824,83.504 C596.941333,83.7386667 597.278667,83.856 597.836,83.856 C598.393333,83.856 598.701333,83.7386667 598.76,83.504 L598.76,83.504 L607.862,62.561 L618.472,83.504 C618.576296,83.7125926 618.85442,83.8284774 619.30637,83.8516543 L619.484,83.856 Z M651.736,84.56 C654.669333,84.56 657.104,84.0026667 659.04,82.888 C660.976,81.7733333 662.428,80.3213333 663.396,78.532 C664.364,76.7426667 664.848,74.9093333 664.848,73.032 C664.848,70.9786667 664.378667,69.3066667 663.44,68.016 C662.501333,66.7253333 661.328,65.6253333 659.92,64.716 C658.512,63.8066667 657.074667,62.9413333 655.608,62.12 C654.376,61.3573333 653.232,60.58 652.176,59.788 C651.12,58.996 650.254667,58.116 649.58,57.148 C648.905333,56.18 648.568,55.08 648.568,53.848 C648.568,52.3813333 648.964,51.4426667 649.756,51.032 C650.548,50.6213333 651.354667,50.416 652.176,50.416 C653.877333,50.416 655.461333,50.9 656.928,51.868 C658.394667,52.836 659.582667,53.9653333 660.492,55.256 C661.401333,56.5466667 661.856,57.7493333 661.856,58.864 C661.856,59.04 662.032,59.128 662.384,59.128 C662.736,59.128 662.912,59.04 662.912,58.864 C662.912,57.3386667 662.941333,55.9453333 663,54.684 C663.058667,53.4226667 663.088,52.2053333 663.088,51.032 C663.088,50.5626667 662.824,50.24 662.296,50.064 C660.888,49.536 659.641333,49.184 658.556,49.008 C657.470667,48.832 656.282667,48.744 654.992,48.744 C652.88,48.744 650.841333,49.0666667 648.876,49.712 C646.910667,50.3573333 645.312,51.4133333 644.08,52.88 C642.848,54.3466667 642.232,56.312 642.232,58.776 C642.232,60.8293333 642.672,62.4866667 643.552,63.748 C644.432,65.0093333 645.546667,66.0506667 646.896,66.872 C648.245333,67.6933333 649.594667,68.4853333 650.944,69.248 C652.117333,69.8933333 653.261333,70.612 654.376,71.404 C655.490667,72.196 656.414667,73.1346667 657.148,74.22 C657.881333,75.3053333 658.248,76.6693333 658.248,78.312 C658.248,79.8373333 657.866667,80.9666667 657.104,81.7 C656.341333,82.4333333 655.373333,82.8 654.2,82.8 C652.674667,82.8 651.164,82.316 649.668,81.348 C648.172,80.38 646.837333,79.0893333 645.664,77.476 C644.490667,75.8626667 643.581333,74.1173333 642.936,72.24 C642.877333,72.1226667 642.686667,72.0786667 642.364,72.108 C642.041333,72.1373333 641.88,72.24 641.88,72.416 L641.88,72.416 L642.056,81.128 C642.056,81.3626667 642.114667,81.568 642.232,81.744 C642.349333,81.92 642.466667,82.0666667 642.584,82.184 C644.285333,83.1226667 645.869333,83.7533333 647.336,84.076 C648.802667,84.3986667 650.269333,84.56 651.736,84.56 Z"
      id="fragments&amp;flows" fill="#000000" fill-rule="nonzero"></path>
  </g>
</svg>